<svg id="svg" version="1.1" xmlns="http://www.w3.org/2000/svg" xmlns:xlink="http://www.w3.org/1999/xlink" width="400" height="136.2530413625304" viewBox="0, 0, 400,136.2530413625304"><g id="svgg"><path id="path0" d="M164.824 35.226 C 164.721 35.335,162.931 35.762,161.500 36.018 C 160.996 36.108,160.317 36.366,159.991 36.591 C 159.665 36.816,159.349 37.000,159.288 37.000 C 159.120 37.000,157.296 38.205,156.891 38.583 C 156.695 38.767,156.358 39.080,156.142 39.280 C 155.494 39.881,155.059 40.389,154.740 40.917 C 154.574 41.192,154.312 41.567,154.158 41.750 C 154.003 41.933,153.825 42.304,153.761 42.573 C 153.697 42.843,153.500 43.265,153.324 43.513 C 153.148 43.760,152.892 44.447,152.754 45.039 C 152.617 45.630,152.373 46.407,152.211 46.766 C 151.753 47.779,151.756 84.561,152.214 85.576 C 152.378 85.938,152.627 86.741,152.767 87.360 C 152.908 87.978,153.163 88.663,153.335 88.880 C 153.506 89.098,153.698 89.495,153.762 89.763 C 153.825 90.031,154.003 90.400,154.158 90.583 C 154.312 90.767,154.574 91.142,154.740 91.417 C 155.059 91.944,155.494 92.452,156.142 93.053 C 156.358 93.253,156.695 93.567,156.891 93.750 C 157.330 94.161,159.127 95.333,159.316 95.333 C 159.393 95.333,159.650 95.487,159.888 95.674 C 160.127 95.862,160.830 96.131,161.452 96.273 C 162.074 96.415,163.071 96.647,163.667 96.789 C 165.929 97.326,172.500 96.626,172.500 95.847 C 172.500 95.770,172.744 95.608,173.042 95.487 C 174.033 95.083,175.240 94.217,176.187 93.228 C 177.865 91.475,178.167 91.120,178.167 90.898 C 178.167 90.778,178.315 90.542,178.496 90.373 C 178.677 90.205,178.937 89.747,179.075 89.356 C 179.213 88.965,179.471 88.442,179.647 88.194 C 179.824 87.946,180.023 87.370,180.089 86.913 C 180.156 86.457,180.361 85.784,180.545 85.419 C 180.908 84.700,181.276 80.918,181.085 79.880 C 180.910 78.924,180.591 78.833,177.397 78.833 L 174.535 78.833 174.017 79.422 C 173.583 79.917,173.499 80.151,173.494 80.881 C 173.487 81.941,173.085 84.279,172.863 84.552 C 172.774 84.661,172.604 85.087,172.486 85.500 C 172.367 85.912,172.078 86.493,171.844 86.791 C 170.740 88.188,170.453 88.500,170.272 88.500 C 170.164 88.500,169.780 88.744,169.419 89.042 L 168.762 89.583 166.423 89.583 L 164.083 89.583 163.000 88.965 C 161.841 88.302,160.931 87.340,160.633 86.460 C 160.532 86.161,160.292 85.692,160.100 85.417 L 159.750 84.917 159.750 66.250 L 159.750 47.583 160.328 46.417 C 161.646 43.756,163.086 42.798,165.928 42.693 C 167.596 42.631,169.333 42.955,169.333 43.327 C 169.333 43.400,169.540 43.546,169.792 43.652 C 170.554 43.973,172.333 46.340,172.333 47.034 C 172.333 47.197,172.480 47.715,172.659 48.186 C 172.838 48.657,173.029 49.576,173.085 50.229 C 173.302 52.785,173.119 52.667,176.854 52.667 C 179.276 52.667,179.949 52.616,180.366 52.400 L 180.883 52.133 180.783 50.273 C 180.728 49.250,180.576 48.152,180.445 47.832 C 180.315 47.512,180.156 46.875,180.094 46.417 C 179.969 45.504,178.965 42.984,178.475 42.353 C 178.305 42.134,178.167 41.867,178.167 41.760 C 178.167 40.995,174.192 37.236,172.969 36.845 C 172.631 36.736,172.330 36.572,172.299 36.480 C 172.138 35.998,165.194 34.833,164.824 35.226 M201.417 35.339 C 201.142 35.415,200.429 35.552,199.833 35.643 C 197.631 35.979,196.263 36.409,195.070 37.140 C 192.662 38.614,190.217 41.169,189.738 42.712 C 189.675 42.916,189.484 43.281,189.313 43.523 C 189.143 43.765,188.892 44.447,188.754 45.039 C 188.617 45.630,188.373 46.407,188.211 46.766 C 187.751 47.783,187.755 95.326,188.214 95.786 C 188.755 96.326,194.440 96.227,195.000 95.667 L 195.417 95.250 195.462 85.711 L 195.508 76.171 195.879 76.081 C 196.083 76.031,199.137 76.011,202.667 76.037 L 209.083 76.083 209.167 85.508 C 209.258 95.857,209.233 95.613,210.270 96.007 C 210.730 96.183,215.322 96.227,216.135 96.065 C 217.221 95.847,217.167 97.106,217.161 72.122 C 217.155 48.722,217.128 47.717,216.466 46.164 C 216.329 45.842,216.165 45.233,216.101 44.812 C 216.038 44.391,215.802 43.796,215.577 43.491 C 215.351 43.185,215.167 42.816,215.167 42.670 C 215.167 42.524,214.945 42.144,214.673 41.827 C 214.402 41.510,214.176 41.175,214.170 41.083 C 214.158 40.891,212.654 39.298,211.859 38.635 C 211.007 37.924,209.717 37.000,209.577 37.000 C 209.507 37.000,209.048 36.810,208.557 36.578 C 207.689 36.168,207.331 36.070,205.250 35.676 C 204.700 35.572,203.888 35.415,203.446 35.327 C 202.522 35.143,202.117 35.145,201.417 35.339 M266.493 35.423 C 265.618 35.530,264.755 35.694,264.576 35.786 C 264.397 35.879,263.912 36.004,263.500 36.064 C 262.598 36.197,259.850 37.528,259.172 38.162 C 258.905 38.411,258.499 38.738,258.270 38.888 C 258.041 39.038,257.401 39.706,256.848 40.372 C 256.295 41.038,255.700 41.733,255.527 41.917 C 255.354 42.100,255.157 42.438,255.089 42.667 C 255.021 42.896,254.790 43.389,254.576 43.762 C 254.362 44.136,254.076 44.886,253.941 45.429 C 253.805 45.972,253.557 46.754,253.389 47.167 C 252.915 48.331,252.915 84.002,253.389 85.167 C 253.557 85.579,253.805 86.361,253.941 86.904 C 254.076 87.447,254.362 88.197,254.576 88.571 C 254.790 88.944,255.021 89.438,255.089 89.667 C 255.157 89.896,255.354 90.233,255.527 90.417 C 255.700 90.600,256.295 91.295,256.848 91.961 C 257.401 92.627,258.041 93.295,258.270 93.445 C 258.499 93.595,258.905 93.922,259.172 94.172 C 259.850 94.805,262.598 96.136,263.500 96.269 C 263.912 96.329,264.394 96.453,264.570 96.544 C 265.094 96.814,268.160 97.118,268.987 96.982 C 272.544 96.398,273.968 96.079,274.291 95.796 C 274.452 95.655,274.751 95.488,274.955 95.426 C 275.431 95.281,277.087 94.286,277.556 93.862 C 278.421 93.083,280.333 91.071,280.333 90.941 C 280.333 90.862,280.519 90.578,280.746 90.308 C 280.972 90.039,281.235 89.530,281.330 89.179 C 281.425 88.827,281.614 88.446,281.750 88.333 C 281.886 88.220,282.076 87.818,282.171 87.439 C 282.267 87.060,282.548 86.112,282.797 85.333 L 283.250 83.917 283.250 66.167 L 283.250 48.417 282.797 47.000 C 282.548 46.221,282.267 45.273,282.171 44.894 C 282.076 44.516,281.886 44.113,281.750 44.000 C 281.614 43.887,281.425 43.507,281.330 43.155 C 281.235 42.803,280.972 42.295,280.746 42.025 C 280.519 41.756,280.333 41.471,280.333 41.393 C 280.333 41.253,278.319 39.147,277.500 38.432 C 276.807 37.825,275.782 37.189,275.166 36.982 C 274.845 36.874,274.452 36.672,274.291 36.534 C 274.009 36.289,273.419 36.142,270.583 35.610 C 268.552 35.228,268.208 35.212,266.493 35.423 M303.960 35.429 C 303.343 35.552,302.705 35.722,302.544 35.806 C 302.382 35.890,301.819 36.011,301.292 36.074 C 300.764 36.138,300.224 36.300,300.090 36.434 C 299.956 36.568,299.637 36.771,299.382 36.886 C 297.305 37.817,295.143 39.853,293.881 42.065 C 293.626 42.513,293.324 43.038,293.211 43.231 C 293.098 43.425,293.004 43.734,293.002 43.919 C 293.001 44.104,292.851 44.534,292.668 44.874 C 291.678 46.721,291.637 47.750,291.562 72.486 L 291.493 94.889 291.936 95.528 L 292.379 96.167 295.433 96.167 L 298.488 96.167 298.911 95.545 L 299.333 94.923 299.333 84.574 L 299.333 74.225 299.719 73.862 C 300.119 73.486,305.051 73.315,305.899 73.647 C 306.247 73.784,307.398 76.273,307.680 77.497 C 307.775 77.908,307.956 78.360,308.083 78.500 C 308.210 78.640,308.393 79.105,308.488 79.531 C 308.584 79.958,308.851 80.662,309.081 81.095 C 309.312 81.528,309.500 82.043,309.500 82.240 C 309.500 82.436,309.652 82.893,309.838 83.256 C 310.024 83.620,310.319 84.375,310.492 84.936 C 310.666 85.496,310.964 86.245,311.154 86.600 C 311.344 86.955,311.500 87.362,311.500 87.504 C 311.500 87.646,311.648 88.054,311.830 88.409 C 312.011 88.765,312.279 89.475,312.426 89.986 C 312.573 90.498,312.833 91.158,313.004 91.454 C 313.176 91.749,313.368 92.274,313.432 92.620 C 313.534 93.176,313.710 93.601,314.557 95.331 C 314.921 96.074,315.356 96.162,318.704 96.164 L 321.825 96.167 322.095 95.645 C 322.446 94.965,322.308 94.026,321.665 92.732 C 321.397 92.192,321.175 91.635,321.172 91.494 C 321.169 91.353,321.019 90.947,320.838 90.593 C 320.658 90.238,320.386 89.566,320.234 89.099 C 320.083 88.632,319.827 88.025,319.666 87.750 C 319.506 87.475,319.321 86.953,319.256 86.589 C 319.191 86.225,319.002 85.736,318.835 85.502 C 318.668 85.268,318.403 84.628,318.246 84.080 C 318.089 83.532,317.863 82.971,317.743 82.833 C 317.623 82.696,317.434 82.208,317.322 81.750 C 317.211 81.292,317.017 80.798,316.892 80.653 C 316.767 80.508,316.545 79.983,316.397 79.486 C 316.250 78.990,315.950 78.246,315.731 77.835 C 315.513 77.423,315.333 76.956,315.333 76.798 C 315.333 76.640,315.108 76.067,314.833 75.526 C 314.558 74.985,314.333 74.419,314.333 74.268 C 314.333 74.117,314.150 73.639,313.926 73.205 C 313.363 72.118,313.511 71.366,314.342 71.079 C 315.543 70.663,318.673 67.105,319.249 65.500 C 319.364 65.179,319.614 64.654,319.805 64.333 C 319.995 64.012,320.237 63.193,320.343 62.514 C 320.448 61.834,320.639 60.981,320.767 60.618 C 321.043 59.835,321.107 50.120,320.842 49.262 C 320.755 48.980,320.561 47.962,320.411 47.000 C 320.262 46.038,319.962 44.875,319.746 44.417 C 319.530 43.958,319.280 43.388,319.190 43.149 C 318.440 41.155,315.231 37.850,313.198 36.978 C 312.803 36.808,312.366 36.556,312.228 36.418 C 312.089 36.280,311.847 36.167,311.690 36.167 C 311.532 36.167,310.956 36.050,310.410 35.907 C 307.601 35.172,305.889 35.045,303.960 35.429 M360.750 35.357 C 359.801 35.532,358.432 35.796,357.333 36.015 C 356.647 36.151,355.383 36.674,354.333 37.253 C 354.104 37.380,353.644 37.634,353.311 37.819 C 352.490 38.273,350.369 40.393,349.711 41.417 C 349.416 41.875,349.096 42.343,348.999 42.457 C 348.902 42.571,348.675 43.021,348.494 43.457 C 348.313 43.893,348.042 44.467,347.893 44.731 C 347.743 44.996,347.519 45.746,347.395 46.398 C 347.271 47.050,347.059 48.108,346.924 48.750 C 346.718 49.731,346.679 52.499,346.679 66.167 C 346.679 79.835,346.718 82.602,346.924 83.583 C 347.059 84.225,347.273 85.294,347.399 85.959 C 347.525 86.623,347.736 87.336,347.867 87.542 C 347.998 87.748,348.278 88.348,348.489 88.875 C 348.700 89.402,348.924 89.833,348.988 89.833 C 349.053 89.833,349.228 90.091,349.378 90.407 C 349.873 91.444,352.258 93.930,353.327 94.523 C 353.651 94.702,354.104 94.953,354.333 95.080 C 355.994 95.997,356.750 96.243,359.250 96.678 C 359.800 96.774,360.591 96.918,361.009 96.999 C 361.864 97.164,363.518 96.979,365.589 96.486 C 366.325 96.310,367.046 96.167,367.191 96.167 C 367.336 96.167,367.640 96.021,367.866 95.844 C 368.092 95.666,368.495 95.467,368.763 95.402 C 369.283 95.275,370.232 94.673,371.583 93.614 C 372.327 93.032,372.736 92.587,374.223 90.749 C 374.446 90.474,374.751 89.986,374.900 89.666 C 375.050 89.346,375.280 88.896,375.410 88.667 C 375.541 88.438,375.771 87.875,375.921 87.417 C 376.071 86.958,376.318 86.208,376.470 85.750 C 376.894 84.475,376.894 47.859,376.470 46.583 C 376.318 46.125,376.071 45.375,375.921 44.917 C 375.771 44.458,375.541 43.896,375.410 43.667 C 375.280 43.438,375.050 42.988,374.900 42.667 C 374.751 42.347,374.446 41.859,374.223 41.584 C 372.736 39.746,372.327 39.302,371.583 38.719 C 370.232 37.660,369.283 37.058,368.763 36.932 C 368.495 36.866,368.096 36.671,367.876 36.498 C 367.656 36.325,367.126 36.132,366.697 36.069 C 366.268 36.006,365.732 35.886,365.507 35.802 C 365.282 35.717,364.494 35.576,363.757 35.488 C 363.020 35.399,362.229 35.299,362.000 35.265 C 361.771 35.231,361.208 35.272,360.750 35.357 M226.979 36.442 C 226.422 37.113,226.597 85.855,227.158 86.583 C 227.229 86.675,227.425 87.125,227.595 87.583 C 227.961 88.572,228.765 90.147,229.087 90.503 C 229.212 90.642,229.526 91.066,229.783 91.444 C 230.258 92.143,232.713 94.333,233.021 94.333 C 233.114 94.333,233.503 94.548,233.887 94.811 C 234.270 95.074,234.991 95.377,235.489 95.483 C 235.987 95.589,236.477 95.745,236.578 95.829 C 237.260 96.395,249.567 96.605,250.021 96.058 C 250.342 95.672,250.353 89.954,250.034 89.634 C 249.871 89.470,248.662 89.395,245.117 89.330 C 242.307 89.278,240.216 89.168,239.917 89.057 C 239.642 88.956,239.079 88.774,238.667 88.654 C 237.499 88.313,236.073 87.085,235.489 85.917 C 235.306 85.550,235.027 85.025,234.870 84.750 C 234.604 84.286,234.577 82.576,234.500 60.909 C 234.410 35.589,234.475 37.332,233.583 36.440 C 233.172 36.029,227.320 36.031,226.979 36.442 M330.568 36.583 L 330.083 36.999 330.037 65.791 C 329.988 96.565,329.961 95.113,330.593 95.744 C 331.014 96.166,335.691 96.401,336.947 96.065 C 337.880 95.814,337.833 97.390,337.833 66.167 C 337.833 34.944,337.880 36.519,336.947 36.269 C 335.714 35.938,331.051 36.167,330.568 36.583 M204.094 42.848 C 205.714 43.146,208.312 45.114,208.339 46.063 C 208.341 46.166,208.528 46.625,208.754 47.083 L 209.164 47.917 209.165 58.258 C 209.166 66.081,209.118 68.649,208.967 68.800 C 208.649 69.118,196.344 69.083,195.907 68.763 C 195.593 68.533,195.583 68.231,195.583 58.305 L 195.583 48.083 196.236 46.667 C 196.945 45.127,197.909 43.833,198.346 43.833 C 198.498 43.833,198.833 43.667,199.092 43.464 C 199.966 42.776,202.201 42.501,204.094 42.848 M270.294 42.862 C 272.750 43.480,274.555 45.710,275.266 49.000 C 275.611 50.597,275.612 81.729,275.267 83.333 C 274.981 84.663,274.365 86.302,273.983 86.750 C 273.099 87.786,272.398 88.499,272.266 88.500 C 272.183 88.500,271.869 88.687,271.570 88.916 C 270.216 89.948,266.377 89.956,264.688 88.930 C 263.536 88.230,261.914 86.478,261.741 85.746 C 261.677 85.473,261.465 84.987,261.270 84.667 L 260.917 84.083 260.917 66.167 L 260.917 48.250 261.270 47.667 C 261.465 47.346,261.676 46.863,261.740 46.593 C 262.368 43.937,266.832 41.990,270.294 42.862 M308.442 42.915 C 308.902 43.052,309.415 43.314,309.582 43.498 C 309.749 43.683,309.969 43.833,310.072 43.833 C 310.175 43.833,310.478 44.077,310.745 44.375 C 311.968 45.739,312.266 46.276,312.754 48.000 L 313.250 49.750 313.250 54.417 C 313.250 62.145,311.795 65.301,307.842 66.149 C 306.411 66.456,300.244 66.391,299.744 66.064 L 299.333 65.795 299.333 57.661 C 299.333 47.494,299.418 46.983,301.516 44.533 C 301.846 44.148,302.192 43.833,302.285 43.833 C 302.379 43.833,302.658 43.674,302.905 43.479 C 303.912 42.687,306.714 42.402,308.442 42.915 M364.083 42.895 C 365.574 43.297,367.462 44.797,367.943 45.962 C 368.084 46.304,368.292 46.696,368.405 46.833 C 368.978 47.534,369.000 48.239,369.000 66.167 C 369.000 84.095,368.978 84.799,368.405 85.500 C 368.292 85.638,368.086 86.025,367.948 86.360 C 367.617 87.163,366.637 88.126,365.331 88.932 L 364.275 89.583 361.929 89.583 L 359.583 89.583 358.425 88.932 C 357.788 88.573,357.075 88.053,356.842 87.776 C 355.925 86.689,355.328 85.724,355.227 85.167 C 355.169 84.846,354.981 84.224,354.811 83.785 C 354.372 82.659,354.323 49.746,354.758 48.704 C 354.900 48.364,355.092 47.748,355.184 47.335 C 355.460 46.100,357.374 43.667,358.070 43.667 C 358.200 43.667,358.333 43.586,358.365 43.487 C 358.593 42.805,362.318 42.419,364.083 42.895 " stroke="none" fill="#f8f8f7" fill-rule="evenodd"></path><path id="path1" d="M0.000 68.083 L 0.000 136.167 200.000 136.167 L 400.000 136.167 400.000 68.083 L 400.000 0.000 200.000 0.000 L 0.000 0.000 0.000 68.083 M95.642 16.168 L 96.333 16.669 96.333 17.881 C 96.333 18.548,96.220 19.504,96.081 20.005 C 95.525 22.016,95.489 21.879,96.783 22.648 C 97.417 23.025,98.028 23.333,98.140 23.333 C 98.553 23.333,100.931 24.705,102.250 25.704 C 102.910 26.204,104.818 28.118,105.288 28.750 C 109.668 34.649,110.807 38.565,109.032 41.620 C 108.231 42.999,108.195 43.338,108.614 45.583 C 109.018 47.751,109.026 58.639,108.626 61.083 C 108.475 62.000,108.229 63.875,108.079 65.250 C 107.799 67.818,106.965 72.441,106.689 72.959 C 106.604 73.119,106.410 73.925,106.258 74.750 C 106.106 75.575,105.840 76.525,105.667 76.861 C 105.494 77.198,105.268 77.939,105.165 78.510 C 105.061 79.080,104.876 79.705,104.753 79.899 C 104.630 80.092,104.379 80.737,104.196 81.333 C 103.899 82.295,103.487 83.309,102.739 84.917 C 102.611 85.192,102.396 85.679,102.262 86.000 C 102.128 86.321,101.908 86.771,101.773 87.000 C 101.638 87.229,101.380 87.717,101.200 88.083 C 100.561 89.386,100.032 90.324,99.685 90.765 C 99.492 91.010,99.333 91.295,99.333 91.397 C 99.333 91.500,99.032 91.996,98.664 92.500 C 98.296 93.004,97.865 93.629,97.706 93.888 C 97.381 94.417,96.280 95.963,95.981 96.310 C 95.873 96.435,95.520 96.885,95.196 97.310 C 93.838 99.090,90.955 101.993,88.663 103.890 C 87.794 104.608,86.933 105.320,86.750 105.472 C 86.567 105.625,86.094 105.957,85.699 106.210 C 85.304 106.464,84.891 106.748,84.782 106.842 C 84.117 107.412,81.691 108.850,79.605 109.911 C 78.975 110.231,78.375 110.560,78.271 110.641 C 78.168 110.723,77.789 110.885,77.430 111.000 C 77.071 111.116,76.540 111.351,76.250 111.522 C 75.960 111.693,74.868 112.138,73.824 112.511 C 72.779 112.883,71.848 113.252,71.754 113.330 C 71.660 113.407,70.913 113.633,70.093 113.831 C 69.273 114.029,68.411 114.290,68.176 114.411 C 67.942 114.533,67.150 114.718,66.417 114.825 C 65.683 114.931,64.810 115.122,64.475 115.251 C 63.761 115.525,61.438 115.926,59.667 116.082 C 58.979 116.142,57.906 116.299,57.281 116.429 C 55.559 116.789,51.989 116.739,49.850 116.325 C 46.859 115.746,46.439 115.644,45.750 115.329 C 45.383 115.161,44.746 114.936,44.333 114.830 C 43.921 114.723,43.471 114.538,43.333 114.418 C 43.196 114.298,42.789 114.078,42.430 113.930 C 41.720 113.637,39.329 112.104,38.598 111.474 C 38.349 111.259,37.755 110.746,37.278 110.333 C 36.518 109.675,34.986 107.967,33.653 106.291 C 33.417 105.993,32.906 105.171,32.519 104.462 C 32.131 103.754,31.753 103.137,31.679 103.091 C 31.604 103.045,31.370 102.537,31.158 101.962 C 30.946 101.387,30.679 100.767,30.564 100.583 C 30.449 100.400,30.264 99.875,30.153 99.417 C 30.042 98.958,29.817 98.314,29.653 97.985 C 29.488 97.657,29.233 96.719,29.084 95.902 C 28.936 95.085,28.708 94.079,28.577 93.667 C 27.786 91.160,27.822 85.426,28.645 83.000 C 28.817 82.496,29.090 81.671,29.252 81.167 C 29.415 80.662,29.642 80.137,29.758 80.000 C 29.873 79.862,30.087 79.487,30.235 79.167 C 31.193 77.079,34.656 73.705,37.417 72.167 C 37.783 71.962,38.383 71.624,38.750 71.415 C 39.117 71.206,39.604 70.979,39.833 70.912 C 40.063 70.845,40.438 70.663,40.667 70.509 C 40.896 70.355,41.421 70.128,41.833 70.005 C 42.246 69.882,42.738 69.688,42.926 69.574 C 43.243 69.383,46.020 68.285,49.000 67.171 C 51.711 66.158,52.805 65.706,53.181 65.442 C 53.397 65.291,53.689 65.166,53.829 65.166 C 53.969 65.165,54.308 65.044,54.583 64.897 C 54.858 64.749,55.796 64.256,56.667 63.800 C 57.538 63.344,58.737 62.683,59.333 62.329 C 59.929 61.976,60.679 61.538,61.000 61.356 C 62.811 60.327,66.407 56.975,67.450 55.344 C 67.775 54.834,68.245 54.114,68.492 53.744 C 68.740 53.375,69.036 52.701,69.150 52.247 C 69.264 51.793,69.420 51.345,69.495 51.252 C 69.911 50.739,70.036 49.389,70.158 44.083 L 70.288 38.417 70.799 37.000 C 71.238 35.783,71.289 35.478,71.162 34.833 C 70.387 30.901,71.844 28.489,77.238 24.771 C 77.886 24.324,78.867 23.736,79.417 23.464 C 79.967 23.192,80.604 22.872,80.833 22.753 C 82.530 21.869,84.695 21.452,88.120 21.350 C 92.372 21.224,92.119 21.416,92.581 17.959 C 92.702 17.056,93.293 16.242,94.075 15.901 C 94.786 15.591,94.864 15.605,95.642 16.168 M85.083 25.330 C 84.233 25.469,81.151 26.600,81.000 26.829 C 80.954 26.898,80.617 27.109,80.250 27.298 C 79.883 27.487,79.321 27.834,79.000 28.069 C 78.679 28.305,78.236 28.629,78.014 28.790 C 75.701 30.474,74.403 32.502,75.322 32.994 C 75.945 33.327,78.527 33.090,79.575 32.604 C 79.854 32.474,80.383 32.315,80.750 32.251 C 81.117 32.186,82.129 31.771,83.000 31.329 C 83.871 30.887,85.136 30.244,85.811 29.901 L 87.038 29.278 87.623 29.593 C 88.757 30.204,88.994 31.783,88.262 33.833 C 87.301 36.521,87.730 42.050,88.938 42.561 C 89.455 42.780,91.027 40.884,91.572 39.385 C 91.699 39.036,91.922 38.517,92.069 38.231 C 92.215 37.946,92.400 37.384,92.480 36.981 C 92.560 36.579,92.822 35.585,93.063 34.773 C 93.303 33.961,93.500 33.113,93.500 32.890 C 93.500 30.876,95.715 30.529,97.049 32.333 C 98.301 34.027,100.232 36.060,101.635 37.163 C 102.340 37.717,103.031 38.277,103.170 38.407 C 103.718 38.919,105.511 39.271,105.770 38.918 C 106.098 38.469,106.054 37.510,105.670 36.757 C 105.489 36.402,105.255 35.850,105.150 35.532 C 104.779 34.408,102.889 31.643,101.333 29.950 C 100.107 28.614,97.130 26.724,95.621 26.324 C 94.943 26.144,94.490 25.972,93.417 25.488 C 92.835 25.226,86.464 25.105,85.083 25.330 M170.247 35.822 C 171.345 36.092,172.268 36.388,172.299 36.480 C 172.330 36.572,172.631 36.736,172.969 36.845 C 174.192 37.236,178.167 40.995,178.167 41.760 C 178.167 41.867,178.305 42.134,178.475 42.353 C 178.965 42.984,179.969 45.504,180.094 46.417 C 180.156 46.875,180.315 47.512,180.445 47.832 C 180.576 48.152,180.728 49.250,180.783 50.273 L 180.883 52.133 180.366 52.400 C 179.949 52.616,179.276 52.667,176.854 52.667 C 173.119 52.667,173.302 52.785,173.085 50.229 C 173.029 49.576,172.838 48.657,172.659 48.186 C 172.480 47.715,172.333 47.197,172.333 47.034 C 172.333 46.340,170.554 43.973,169.792 43.652 C 169.540 43.546,169.333 43.400,169.333 43.327 C 169.333 42.955,167.596 42.631,165.928 42.693 C 163.086 42.798,161.646 43.756,160.328 46.417 L 159.750 47.583 159.750 66.250 L 159.750 84.917 160.100 85.417 C 160.292 85.692,160.532 86.161,160.633 86.460 C 160.931 87.340,161.841 88.302,163.000 88.965 L 164.083 89.583 166.423 89.583 L 168.762 89.583 169.419 89.042 C 169.780 88.744,170.164 88.500,170.272 88.500 C 170.453 88.500,170.740 88.188,171.844 86.791 C 172.078 86.493,172.367 85.912,172.486 85.500 C 172.604 85.087,172.774 84.661,172.863 84.552 C 173.085 84.279,173.487 81.941,173.494 80.881 C 173.499 80.151,173.583 79.917,174.017 79.422 L 174.535 78.833 177.397 78.833 C 180.591 78.833,180.910 78.924,181.085 79.880 C 181.276 80.918,180.908 84.700,180.545 85.419 C 180.361 85.784,180.156 86.457,180.089 86.913 C 180.023 87.370,179.824 87.946,179.647 88.194 C 179.471 88.442,179.213 88.965,179.075 89.356 C 178.937 89.747,178.677 90.205,178.496 90.373 C 178.315 90.542,178.167 90.778,178.167 90.898 C 178.167 91.120,177.865 91.475,176.187 93.228 C 175.240 94.217,174.033 95.083,173.042 95.487 C 172.744 95.608,172.500 95.770,172.500 95.847 C 172.500 96.626,165.929 97.326,163.667 96.789 C 163.071 96.647,162.074 96.415,161.452 96.273 C 160.830 96.131,160.127 95.862,159.888 95.674 C 159.650 95.487,159.393 95.333,159.316 95.333 C 159.127 95.333,157.330 94.161,156.891 93.750 C 156.695 93.567,156.358 93.253,156.142 93.053 C 155.494 92.452,155.059 91.944,154.740 91.417 C 154.574 91.142,154.312 90.767,154.158 90.583 C 154.003 90.400,153.825 90.031,153.762 89.763 C 153.698 89.495,153.506 89.098,153.335 88.880 C 153.163 88.663,152.908 87.978,152.767 87.360 C 152.627 86.741,152.378 85.938,152.214 85.576 C 151.756 84.561,151.753 47.779,152.211 46.766 C 152.373 46.407,152.617 45.630,152.754 45.039 C 152.892 44.447,153.148 43.760,153.324 43.513 C 153.500 43.265,153.697 42.843,153.761 42.573 C 153.825 42.304,154.003 41.933,154.158 41.750 C 154.312 41.567,154.574 41.192,154.740 40.917 C 155.059 40.389,155.494 39.881,156.142 39.280 C 156.358 39.080,156.695 38.767,156.891 38.583 C 157.296 38.205,159.120 37.000,159.288 37.000 C 159.349 37.000,159.665 36.816,159.991 36.591 C 160.317 36.366,160.996 36.108,161.500 36.018 C 162.931 35.762,164.721 35.335,164.824 35.226 C 165.039 34.997,168.386 35.364,170.247 35.822 M203.446 35.327 C 203.888 35.415,204.700 35.572,205.250 35.676 C 207.331 36.070,207.689 36.168,208.557 36.578 C 209.048 36.810,209.507 37.000,209.577 37.000 C 209.717 37.000,211.007 37.924,211.859 38.635 C 212.654 39.298,214.158 40.891,214.170 41.083 C 214.176 41.175,214.402 41.510,214.673 41.827 C 214.945 42.144,215.167 42.524,215.167 42.670 C 215.167 42.816,215.351 43.185,215.577 43.491 C 215.802 43.796,216.038 44.391,216.101 44.812 C 216.165 45.233,216.329 45.842,216.466 46.164 C 217.128 47.717,217.155 48.722,217.161 72.122 C 217.167 97.106,217.221 95.847,216.135 96.065 C 215.322 96.227,210.730 96.183,210.270 96.007 C 209.233 95.613,209.258 95.857,209.167 85.508 L 209.083 76.083 202.667 76.037 C 199.137 76.011,196.083 76.031,195.879 76.081 L 195.508 76.171 195.462 85.711 L 195.417 95.250 195.000 95.667 C 194.440 96.227,188.755 96.326,188.214 95.786 C 187.755 95.326,187.751 47.783,188.211 46.766 C 188.373 46.407,188.617 45.630,188.754 45.039 C 188.892 44.447,189.143 43.765,189.313 43.523 C 189.484 43.281,189.675 42.916,189.738 42.712 C 190.217 41.169,192.662 38.614,195.070 37.140 C 196.263 36.409,197.631 35.979,199.833 35.643 C 200.429 35.552,201.142 35.415,201.417 35.339 C 202.117 35.145,202.522 35.143,203.446 35.327 M270.583 35.610 C 273.419 36.142,274.009 36.289,274.291 36.534 C 274.452 36.672,274.845 36.874,275.166 36.982 C 275.782 37.189,276.807 37.825,277.500 38.432 C 278.319 39.147,280.333 41.253,280.333 41.393 C 280.333 41.471,280.519 41.756,280.746 42.025 C 280.972 42.295,281.235 42.803,281.330 43.155 C 281.425 43.507,281.614 43.887,281.750 44.000 C 281.886 44.113,282.076 44.516,282.171 44.894 C 282.267 45.273,282.548 46.221,282.797 47.000 L 283.250 48.417 283.250 66.167 L 283.250 83.917 282.797 85.333 C 282.548 86.112,282.267 87.060,282.171 87.439 C 282.076 87.818,281.886 88.220,281.750 88.333 C 281.614 88.446,281.425 88.827,281.330 89.179 C 281.235 89.530,280.972 90.039,280.746 90.308 C 280.519 90.578,280.333 90.862,280.333 90.941 C 280.333 91.071,278.421 93.083,277.556 93.862 C 277.087 94.286,275.431 95.281,274.955 95.426 C 274.751 95.488,274.452 95.655,274.291 95.796 C 273.968 96.079,272.544 96.398,268.987 96.982 C 268.160 97.118,265.094 96.814,264.570 96.544 C 264.394 96.453,263.912 96.329,263.500 96.269 C 262.598 96.136,259.850 94.805,259.172 94.172 C 258.905 93.922,258.499 93.595,258.270 93.445 C 258.041 93.295,257.401 92.627,256.848 91.961 C 256.295 91.295,255.700 90.600,255.527 90.417 C 255.354 90.233,255.157 89.896,255.089 89.667 C 255.021 89.438,254.790 88.944,254.576 88.571 C 254.362 88.197,254.076 87.447,253.941 86.904 C 253.805 86.361,253.557 85.579,253.389 85.167 C 252.915 84.002,252.915 48.331,253.389 47.167 C 253.557 46.754,253.805 45.972,253.941 45.429 C 254.076 44.886,254.362 44.136,254.576 43.762 C 254.790 43.389,255.021 42.896,255.089 42.667 C 255.157 42.438,255.354 42.100,255.527 41.917 C 255.700 41.733,256.295 41.038,256.848 40.372 C 257.401 39.706,258.041 39.038,258.270 38.888 C 258.499 38.738,258.905 38.411,259.172 38.162 C 259.850 37.528,262.598 36.197,263.500 36.064 C 263.912 36.004,264.397 35.879,264.576 35.786 C 265.010 35.563,267.931 35.211,268.667 35.294 C 268.987 35.330,269.850 35.472,270.583 35.610 M308.083 35.410 C 308.817 35.540,309.864 35.764,310.410 35.907 C 310.956 36.050,311.532 36.167,311.690 36.167 C 311.847 36.167,312.089 36.280,312.228 36.418 C 312.366 36.556,312.803 36.808,313.198 36.978 C 315.231 37.850,318.440 41.155,319.190 43.149 C 319.280 43.388,319.530 43.958,319.746 44.417 C 319.962 44.875,320.262 46.038,320.411 47.000 C 320.561 47.962,320.755 48.980,320.842 49.262 C 321.107 50.120,321.043 59.835,320.767 60.618 C 320.639 60.981,320.448 61.834,320.343 62.514 C 320.237 63.193,319.995 64.012,319.805 64.333 C 319.614 64.654,319.364 65.179,319.249 65.500 C 318.673 67.105,315.543 70.663,314.342 71.079 C 313.511 71.366,313.363 72.118,313.926 73.205 C 314.150 73.639,314.333 74.117,314.333 74.268 C 314.333 74.419,314.558 74.985,314.833 75.526 C 315.108 76.067,315.333 76.640,315.333 76.798 C 315.333 76.956,315.513 77.423,315.731 77.835 C 315.950 78.246,316.250 78.990,316.397 79.486 C 316.545 79.983,316.767 80.508,316.892 80.653 C 317.017 80.798,317.211 81.292,317.322 81.750 C 317.434 82.208,317.623 82.696,317.743 82.833 C 317.863 82.971,318.089 83.532,318.246 84.080 C 318.403 84.628,318.668 85.268,318.835 85.502 C 319.002 85.736,319.191 86.225,319.256 86.589 C 319.321 86.953,319.506 87.475,319.666 87.750 C 319.827 88.025,320.083 88.632,320.234 89.099 C 320.386 89.566,320.658 90.238,320.838 90.593 C 321.019 90.947,321.169 91.353,321.172 91.494 C 321.175 91.635,321.397 92.192,321.665 92.732 C 322.308 94.026,322.446 94.965,322.095 95.645 L 321.825 96.167 318.704 96.164 C 315.356 96.162,314.921 96.074,314.557 95.331 C 313.710 93.601,313.534 93.176,313.432 92.620 C 313.368 92.274,313.176 91.749,313.004 91.454 C 312.833 91.158,312.573 90.498,312.426 89.986 C 312.279 89.475,312.011 88.765,311.830 88.409 C 311.648 88.054,311.500 87.646,311.500 87.504 C 311.500 87.362,311.344 86.955,311.154 86.600 C 310.964 86.245,310.666 85.496,310.492 84.936 C 310.319 84.375,310.024 83.620,309.838 83.256 C 309.652 82.893,309.500 82.436,309.500 82.240 C 309.500 82.043,309.312 81.528,309.081 81.095 C 308.851 80.662,308.584 79.958,308.488 79.531 C 308.393 79.105,308.210 78.640,308.083 78.500 C 307.956 78.360,307.775 77.908,307.680 77.497 C 307.398 76.273,306.247 73.784,305.899 73.647 C 305.051 73.315,300.119 73.486,299.719 73.862 L 299.333 74.225 299.333 84.574 L 299.333 94.923 298.911 95.545 L 298.488 96.167 295.433 96.167 L 292.379 96.167 291.936 95.528 L 291.493 94.889 291.562 72.486 C 291.637 47.750,291.678 46.721,292.668 44.874 C 292.851 44.534,293.001 44.104,293.002 43.919 C 293.004 43.734,293.098 43.425,293.211 43.231 C 293.324 43.038,293.626 42.513,293.881 42.065 C 295.143 39.853,297.305 37.817,299.382 36.886 C 299.637 36.771,299.956 36.568,300.090 36.434 C 300.224 36.300,300.764 36.138,301.292 36.074 C 301.819 36.011,302.382 35.890,302.544 35.806 C 303.612 35.250,306.160 35.068,308.083 35.410 M363.757 35.488 C 364.494 35.576,365.282 35.717,365.507 35.802 C 365.732 35.886,366.268 36.006,366.697 36.069 C 367.126 36.132,367.656 36.325,367.876 36.498 C 368.096 36.671,368.495 36.866,368.763 36.932 C 369.283 37.058,370.232 37.660,371.583 38.719 C 372.327 39.302,372.736 39.746,374.223 41.584 C 374.446 41.859,374.751 42.347,374.900 42.667 C 375.050 42.988,375.280 43.438,375.410 43.667 C 375.541 43.896,375.771 44.458,375.921 44.917 C 376.071 45.375,376.318 46.125,376.470 46.583 C 376.894 47.859,376.894 84.475,376.470 85.750 C 376.318 86.208,376.071 86.958,375.921 87.417 C 375.771 87.875,375.541 88.438,375.410 88.667 C 375.280 88.896,375.050 89.346,374.900 89.666 C 374.751 89.986,374.446 90.474,374.223 90.749 C 372.736 92.587,372.327 93.032,371.583 93.614 C 370.232 94.673,369.283 95.275,368.763 95.402 C 368.495 95.467,368.092 95.666,367.866 95.844 C 367.640 96.021,367.336 96.167,367.191 96.167 C 367.046 96.167,366.325 96.310,365.589 96.486 C 363.518 96.979,361.864 97.164,361.009 96.999 C 360.591 96.918,359.800 96.774,359.250 96.678 C 356.750 96.243,355.994 95.997,354.333 95.080 C 354.104 94.953,353.651 94.702,353.327 94.523 C 352.258 93.930,349.873 91.444,349.378 90.407 C 349.228 90.091,349.053 89.833,348.988 89.833 C 348.924 89.833,348.700 89.402,348.489 88.875 C 348.278 88.348,347.998 87.748,347.867 87.542 C 347.736 87.336,347.525 86.623,347.399 85.959 C 347.273 85.294,347.059 84.225,346.924 83.583 C 346.718 82.602,346.679 79.835,346.679 66.167 C 346.679 52.499,346.718 49.731,346.924 48.750 C 347.059 48.108,347.271 47.050,347.395 46.398 C 347.519 45.746,347.743 44.996,347.893 44.731 C 348.042 44.467,348.313 43.893,348.494 43.457 C 348.675 43.021,348.902 42.571,348.999 42.457 C 349.096 42.343,349.416 41.875,349.711 41.417 C 350.369 40.393,352.490 38.273,353.311 37.819 C 353.644 37.634,354.104 37.380,354.333 37.253 C 355.383 36.674,356.647 36.151,357.333 36.015 C 360.871 35.311,361.561 35.200,362.000 35.265 C 362.229 35.299,363.020 35.399,363.757 35.488 M82.500 35.661 C 82.179 35.834,81.542 36.027,81.083 36.091 C 80.625 36.155,79.875 36.357,79.417 36.539 C 78.898 36.746,78.017 36.902,77.083 36.954 C 74.131 37.116,74.138 37.101,73.985 44.167 C 73.889 48.643,73.811 49.915,73.592 50.583 C 73.442 51.042,73.175 51.963,72.998 52.631 C 72.822 53.300,72.437 54.275,72.143 54.798 C 71.850 55.322,71.485 55.986,71.331 56.275 C 70.722 57.425,68.698 59.805,67.152 61.191 C 65.275 62.874,64.861 63.205,63.417 64.177 C 62.043 65.102,61.873 65.206,60.224 66.126 C 59.688 66.425,59.137 66.740,59.000 66.827 C 58.550 67.112,55.038 68.799,54.639 68.922 C 54.425 68.988,53.725 69.287,53.083 69.587 C 52.442 69.886,51.678 70.182,51.387 70.243 C 51.095 70.304,50.772 70.456,50.670 70.579 C 50.567 70.703,50.094 70.898,49.617 71.012 C 49.141 71.126,48.301 71.433,47.751 71.693 C 47.200 71.953,46.654 72.166,46.537 72.167 C 46.302 72.167,44.802 72.774,43.250 73.497 C 42.700 73.754,42.063 74.018,41.833 74.085 C 41.604 74.152,41.304 74.302,41.167 74.420 C 41.029 74.537,40.617 74.757,40.250 74.908 C 38.746 75.527,36.140 77.568,34.915 79.088 C 32.815 81.692,31.662 84.920,31.669 88.180 C 31.673 90.389,32.976 96.820,33.691 98.164 C 33.861 98.484,34.000 98.859,34.000 98.999 C 34.000 99.295,35.212 101.744,35.897 102.833 C 36.721 104.143,37.235 104.907,37.526 105.250 C 38.032 105.849,40.377 108.164,40.819 108.502 C 41.056 108.683,41.542 109.057,41.898 109.332 C 42.254 109.608,42.618 109.833,42.707 109.833 C 42.796 109.833,43.202 110.058,43.609 110.333 C 44.017 110.608,44.446 110.833,44.563 110.833 C 44.681 110.833,45.146 111.021,45.597 111.249 C 47.451 112.190,50.756 112.833,53.736 112.833 C 56.546 112.833,63.527 111.905,64.526 111.399 C 64.769 111.276,65.503 111.092,66.156 110.990 C 66.810 110.889,67.944 110.587,68.677 110.320 C 69.410 110.052,70.142 109.833,70.303 109.833 C 70.464 109.833,70.883 109.687,71.234 109.508 C 71.584 109.330,72.349 109.029,72.933 108.840 C 73.517 108.652,74.577 108.205,75.289 107.847 C 76.001 107.489,76.751 107.148,76.955 107.088 C 77.160 107.028,77.755 106.722,78.279 106.406 C 78.802 106.091,79.317 105.833,79.423 105.833 C 79.528 105.833,79.751 105.683,79.917 105.500 C 80.083 105.317,80.313 105.167,80.430 105.167 C 80.546 105.167,80.985 104.904,81.405 104.583 C 81.826 104.262,82.212 104.000,82.265 104.000 C 82.317 104.000,83.071 103.456,83.941 102.792 C 84.811 102.127,85.761 101.424,86.053 101.228 C 86.633 100.840,89.921 97.637,91.264 96.153 C 93.215 93.996,96.123 89.809,97.390 87.333 C 98.780 84.616,99.135 83.875,99.324 83.292 C 99.435 82.948,99.593 82.667,99.675 82.667 C 99.757 82.667,99.948 82.235,100.100 81.708 C 100.252 81.181,100.544 80.412,100.749 80.000 C 100.954 79.587,101.176 78.950,101.243 78.584 C 101.309 78.217,101.543 77.492,101.761 76.973 C 102.139 76.075,102.552 74.507,103.093 71.917 C 103.227 71.275,103.443 70.480,103.574 70.149 C 103.704 69.819,103.860 69.069,103.919 68.482 C 104.051 67.167,104.434 64.412,104.762 62.417 C 105.094 60.398,105.257 51.463,105.031 47.667 C 104.802 43.828,104.450 42.881,103.137 42.581 C 102.891 42.525,102.600 42.371,102.491 42.239 C 102.382 42.108,102.216 42.000,102.123 42.000 C 101.952 42.000,99.739 40.588,99.398 40.261 C 99.296 40.163,98.887 39.821,98.490 39.500 C 98.093 39.179,97.606 38.748,97.407 38.542 C 96.687 37.795,95.852 38.314,95.494 39.730 C 95.399 40.108,95.181 40.679,95.010 41.000 C 92.740 45.268,91.285 46.583,88.833 46.583 C 85.741 46.583,84.219 43.964,84.013 38.285 C 83.898 35.150,83.792 34.966,82.500 35.661 M233.583 36.440 C 234.475 37.332,234.410 35.589,234.500 60.909 C 234.577 82.576,234.604 84.286,234.870 84.750 C 235.027 85.025,235.306 85.550,235.489 85.917 C 236.073 87.085,237.499 88.313,238.667 88.654 C 239.079 88.774,239.642 88.956,239.917 89.057 C 240.216 89.168,242.307 89.278,245.117 89.330 C 248.662 89.395,249.871 89.470,250.034 89.634 C 250.353 89.954,250.342 95.672,250.021 96.058 C 249.567 96.605,237.260 96.395,236.578 95.829 C 236.477 95.745,235.987 95.589,235.489 95.483 C 234.991 95.377,234.270 95.074,233.887 94.811 C 233.503 94.548,233.114 94.333,233.021 94.333 C 232.713 94.333,230.258 92.143,229.783 91.444 C 229.526 91.066,229.212 90.642,229.087 90.503 C 228.765 90.147,227.961 88.572,227.595 87.583 C 227.425 87.125,227.229 86.675,227.158 86.583 C 226.597 85.855,226.422 37.113,226.979 36.442 C 227.320 36.031,233.172 36.029,233.583 36.440 M336.947 36.269 C 337.880 36.519,337.833 34.944,337.833 66.167 C 337.833 97.390,337.880 95.814,336.947 96.065 C 335.691 96.401,331.014 96.166,330.593 95.744 C 329.961 95.113,329.988 96.565,330.037 65.791 L 330.083 36.999 330.568 36.583 C 331.051 36.167,335.714 35.938,336.947 36.269 M200.489 42.894 C 199.979 43.004,199.350 43.260,199.092 43.464 C 198.833 43.667,198.498 43.833,198.346 43.833 C 197.909 43.833,196.945 45.127,196.236 46.667 L 195.583 48.083 195.583 58.305 C 195.583 68.231,195.593 68.533,195.907 68.763 C 196.344 69.083,208.649 69.118,208.967 68.800 C 209.118 68.649,209.166 66.081,209.165 58.258 L 209.164 47.917 208.754 47.083 C 208.528 46.625,208.341 46.166,208.339 46.063 C 208.336 45.961,208.029 45.495,207.658 45.028 C 206.090 43.059,203.418 42.264,200.489 42.894 M265.833 42.906 C 264.359 43.318,262.015 45.429,261.740 46.593 C 261.676 46.863,261.465 47.346,261.270 47.667 L 260.917 48.250 260.917 66.167 L 260.917 84.083 261.270 84.667 C 261.465 84.987,261.677 85.473,261.741 85.746 C 261.914 86.478,263.536 88.230,264.688 88.930 C 266.377 89.956,270.216 89.948,271.570 88.916 C 271.869 88.687,272.183 88.500,272.266 88.500 C 272.398 88.499,273.099 87.786,273.983 86.750 C 274.365 86.302,274.981 84.663,275.267 83.333 C 275.612 81.729,275.611 50.597,275.266 49.000 C 274.197 44.053,270.434 41.621,265.833 42.906 M304.053 42.907 C 303.669 43.027,303.153 43.284,302.905 43.479 C 302.658 43.674,302.379 43.833,302.285 43.833 C 302.192 43.833,301.846 44.148,301.516 44.533 C 299.418 46.983,299.333 47.494,299.333 57.661 L 299.333 65.795 299.744 66.064 C 300.244 66.391,306.411 66.456,307.842 66.149 C 311.795 65.301,313.250 62.145,313.250 54.417 L 313.250 49.750 312.754 48.000 C 312.266 46.276,311.968 45.739,310.745 44.375 C 310.478 44.077,310.175 43.833,310.072 43.833 C 309.969 43.833,309.749 43.683,309.582 43.498 C 308.894 42.738,305.689 42.395,304.053 42.907 M359.338 42.992 C 358.836 43.166,358.398 43.388,358.365 43.487 C 358.333 43.586,358.200 43.667,358.070 43.667 C 357.374 43.667,355.460 46.100,355.184 47.335 C 355.092 47.748,354.900 48.364,354.758 48.704 C 354.323 49.746,354.372 82.659,354.811 83.785 C 354.981 84.224,355.169 84.846,355.227 85.167 C 355.328 85.724,355.925 86.689,356.842 87.776 C 357.075 88.053,357.788 88.573,358.425 88.932 L 359.583 89.583 361.929 89.583 L 364.275 89.583 365.331 88.932 C 366.637 88.126,367.617 87.163,367.948 86.360 C 368.086 86.025,368.292 85.638,368.405 85.500 C 368.978 84.799,369.000 84.095,369.000 66.167 C 369.000 48.239,368.978 47.534,368.405 46.833 C 368.292 46.696,368.084 46.304,367.943 45.962 C 366.886 43.401,362.519 41.894,359.338 42.992 " stroke="none" fill="#524941" fill-rule="evenodd"></path><path id="path2" d="M94.075 15.901 C 93.293 16.242,92.702 17.056,92.581 17.959 C 92.119 21.416,92.372 21.224,88.120 21.350 C 84.695 21.452,82.530 21.869,80.833 22.753 C 80.604 22.872,79.967 23.192,79.417 23.464 C 78.867 23.736,77.886 24.324,77.238 24.771 C 71.844 28.489,70.387 30.901,71.162 34.833 C 71.289 35.478,71.238 35.783,70.799 37.000 L 70.288 38.417 70.158 44.083 C 70.036 49.389,69.911 50.739,69.495 51.252 C 69.420 51.345,69.264 51.793,69.150 52.247 C 69.036 52.701,68.740 53.375,68.492 53.744 C 68.245 54.114,67.775 54.834,67.450 55.344 C 66.407 56.975,62.811 60.327,61.000 61.356 C 60.679 61.538,59.929 61.976,59.333 62.329 C 58.737 62.683,57.538 63.344,56.667 63.800 C 55.796 64.256,54.858 64.749,54.583 64.897 C 54.308 65.044,53.969 65.165,53.829 65.166 C 53.689 65.166,53.397 65.291,53.181 65.442 C 52.805 65.706,51.711 66.158,49.000 67.171 C 46.020 68.285,43.243 69.383,42.926 69.574 C 42.738 69.688,42.246 69.882,41.833 70.005 C 41.421 70.128,40.896 70.355,40.667 70.509 C 40.438 70.663,40.063 70.845,39.833 70.912 C 39.604 70.979,39.117 71.206,38.750 71.415 C 38.383 71.624,37.783 71.962,37.417 72.167 C 34.656 73.705,31.193 77.079,30.235 79.167 C 30.087 79.487,29.873 79.862,29.758 80.000 C 29.642 80.137,29.415 80.662,29.252 81.167 C 29.090 81.671,28.817 82.496,28.645 83.000 C 27.822 85.426,27.786 91.160,28.577 93.667 C 28.708 94.079,28.936 95.085,29.084 95.902 C 29.233 96.719,29.488 97.657,29.653 97.985 C 29.817 98.314,30.042 98.958,30.153 99.417 C 30.264 99.875,30.449 100.400,30.564 100.583 C 30.679 100.767,30.946 101.387,31.158 101.962 C 31.370 102.537,31.604 103.045,31.679 103.091 C 31.753 103.137,32.131 103.754,32.519 104.462 C 32.906 105.171,33.417 105.993,33.653 106.291 C 34.986 107.967,36.518 109.675,37.278 110.333 C 37.755 110.746,38.349 111.259,38.598 111.474 C 39.329 112.104,41.720 113.637,42.430 113.930 C 42.789 114.078,43.196 114.298,43.333 114.418 C 43.471 114.538,43.921 114.723,44.333 114.830 C 44.746 114.936,45.383 115.161,45.750 115.329 C 48.115 116.411,54.468 117.017,57.281 116.429 C 57.906 116.299,58.979 116.142,59.667 116.082 C 61.438 115.926,63.761 115.525,64.475 115.251 C 64.810 115.122,65.683 114.931,66.417 114.825 C 67.150 114.718,67.942 114.533,68.176 114.411 C 68.411 114.290,69.273 114.029,70.093 113.831 C 70.913 113.633,71.660 113.407,71.754 113.330 C 71.848 113.252,72.779 112.883,73.824 112.511 C 74.868 112.138,75.960 111.693,76.250 111.522 C 76.540 111.351,77.071 111.116,77.430 111.000 C 77.789 110.885,78.168 110.723,78.271 110.641 C 78.375 110.560,78.975 110.231,79.605 109.911 C 81.691 108.850,84.117 107.412,84.782 106.842 C 84.891 106.748,85.304 106.464,85.699 106.210 C 86.094 105.957,86.567 105.625,86.750 105.472 C 86.933 105.320,87.794 104.608,88.663 103.890 C 90.955 101.993,93.838 99.090,95.196 97.310 C 95.520 96.885,95.873 96.435,95.981 96.310 C 96.280 95.963,97.381 94.417,97.706 93.888 C 97.865 93.629,98.296 93.004,98.664 92.500 C 99.032 91.996,99.333 91.500,99.333 91.397 C 99.333 91.295,99.492 91.010,99.685 90.765 C 100.032 90.324,100.561 89.386,101.200 88.083 C 101.380 87.717,101.638 87.229,101.773 87.000 C 101.908 86.771,102.128 86.321,102.262 86.000 C 102.396 85.679,102.611 85.192,102.739 84.917 C 103.487 83.309,103.899 82.295,104.196 81.333 C 104.379 80.737,104.630 80.092,104.753 79.899 C 104.876 79.705,105.061 79.080,105.165 78.510 C 105.268 77.939,105.494 77.198,105.667 76.861 C 105.840 76.525,106.106 75.575,106.258 74.750 C 106.410 73.925,106.604 73.119,106.689 72.959 C 106.965 72.441,107.799 67.818,108.079 65.250 C 108.229 63.875,108.475 62.000,108.626 61.083 C 109.026 58.639,109.018 47.751,108.614 45.583 C 108.195 43.338,108.231 42.999,109.032 41.620 C 110.807 38.565,109.668 34.649,105.288 28.750 C 104.818 28.118,102.910 26.204,102.250 25.704 C 100.931 24.705,98.553 23.333,98.140 23.333 C 98.028 23.333,97.417 23.025,96.783 22.648 C 95.489 21.879,95.525 22.016,96.081 20.005 C 96.220 19.504,96.333 18.548,96.333 17.881 L 96.333 16.669 95.642 16.168 C 94.864 15.605,94.786 15.591,94.075 15.901 M93.417 25.488 C 94.490 25.972,94.943 26.144,95.621 26.324 C 97.130 26.724,100.107 28.614,101.333 29.950 C 102.889 31.643,104.779 34.408,105.150 35.532 C 105.255 35.850,105.489 36.402,105.670 36.757 C 106.054 37.510,106.098 38.469,105.770 38.918 C 105.511 39.271,103.718 38.919,103.170 38.407 C 103.031 38.277,102.340 37.717,101.635 37.163 C 100.232 36.060,98.301 34.027,97.049 32.333 C 95.715 30.529,93.500 30.876,93.500 32.890 C 93.500 33.113,93.303 33.961,93.063 34.773 C 92.822 35.585,92.560 36.579,92.480 36.981 C 92.400 37.384,92.215 37.946,92.069 38.231 C 91.922 38.517,91.699 39.036,91.572 39.385 C 91.027 40.884,89.455 42.780,88.938 42.561 C 87.730 42.050,87.301 36.521,88.262 33.833 C 88.994 31.783,88.757 30.204,87.623 29.593 L 87.038 29.278 85.811 29.901 C 85.136 30.244,83.871 30.887,83.000 31.329 C 82.129 31.771,81.117 32.186,80.750 32.251 C 80.383 32.315,79.854 32.474,79.575 32.604 C 78.527 33.090,75.945 33.327,75.322 32.994 C 74.403 32.502,75.701 30.474,78.014 28.790 C 78.236 28.629,78.679 28.305,79.000 28.069 C 79.321 27.834,79.883 27.487,80.250 27.298 C 80.617 27.109,80.954 26.898,81.000 26.829 C 81.151 26.600,84.233 25.469,85.083 25.330 C 86.464 25.105,92.835 25.226,93.417 25.488 M83.667 35.496 C 83.865 35.621,83.937 36.203,84.013 38.285 C 84.219 43.964,85.741 46.583,88.833 46.583 C 91.285 46.583,92.740 45.268,95.010 41.000 C 95.181 40.679,95.399 40.108,95.494 39.730 C 95.852 38.314,96.687 37.795,97.407 38.542 C 97.606 38.748,98.093 39.179,98.490 39.500 C 98.887 39.821,99.296 40.163,99.398 40.261 C 99.739 40.588,101.952 42.000,102.123 42.000 C 102.216 42.000,102.382 42.108,102.491 42.239 C 102.600 42.371,102.891 42.525,103.137 42.581 C 104.450 42.881,104.802 43.828,105.031 47.667 C 105.257 51.463,105.094 60.398,104.762 62.417 C 104.434 64.412,104.051 67.167,103.919 68.482 C 103.860 69.069,103.704 69.819,103.574 70.149 C 103.443 70.480,103.227 71.275,103.093 71.917 C 102.552 74.507,102.139 76.075,101.761 76.973 C 101.543 77.492,101.309 78.217,101.243 78.584 C 101.176 78.950,100.954 79.587,100.749 80.000 C 100.544 80.412,100.252 81.181,100.100 81.708 C 99.948 82.235,99.757 82.667,99.675 82.667 C 99.593 82.667,99.435 82.948,99.324 83.292 C 99.135 83.875,98.780 84.616,97.390 87.333 C 96.123 89.809,93.215 93.996,91.264 96.153 C 89.921 97.637,86.633 100.840,86.053 101.228 C 85.761 101.424,84.811 102.127,83.941 102.792 C 83.071 103.456,82.317 104.000,82.265 104.000 C 82.212 104.000,81.826 104.262,81.405 104.583 C 80.985 104.904,80.546 105.167,80.430 105.167 C 80.313 105.167,80.083 105.317,79.917 105.500 C 79.751 105.683,79.528 105.833,79.423 105.833 C 79.317 105.833,78.802 106.091,78.279 106.406 C 77.755 106.722,77.160 107.028,76.955 107.088 C 76.751 107.148,76.001 107.489,75.289 107.847 C 74.577 108.205,73.517 108.652,72.933 108.840 C 72.349 109.029,71.584 109.330,71.234 109.508 C 70.883 109.687,70.464 109.833,70.303 109.833 C 70.142 109.833,69.410 110.052,68.677 110.320 C 67.944 110.587,66.810 110.889,66.156 110.990 C 65.503 111.092,64.769 111.276,64.526 111.399 C 63.527 111.905,56.546 112.833,53.736 112.833 C 50.756 112.833,47.451 112.190,45.597 111.249 C 45.146 111.021,44.681 110.833,44.563 110.833 C 44.446 110.833,44.017 110.608,43.609 110.333 C 43.202 110.058,42.796 109.833,42.707 109.833 C 42.618 109.833,42.254 109.608,41.898 109.332 C 41.542 109.057,41.056 108.683,40.819 108.502 C 40.377 108.164,38.032 105.849,37.526 105.250 C 37.235 104.907,36.721 104.143,35.897 102.833 C 35.212 101.744,34.000 99.295,34.000 98.999 C 34.000 98.859,33.861 98.484,33.691 98.164 C 32.976 96.820,31.673 90.389,31.669 88.180 C 31.662 84.920,32.815 81.692,34.915 79.088 C 36.140 77.568,38.746 75.527,40.250 74.908 C 40.617 74.757,41.029 74.537,41.167 74.420 C 41.304 74.302,41.604 74.152,41.833 74.085 C 42.063 74.018,42.700 73.754,43.250 73.497 C 44.802 72.774,46.302 72.167,46.537 72.167 C 46.654 72.166,47.200 71.953,47.751 71.693 C 48.301 71.433,49.141 71.126,49.617 71.012 C 50.094 70.898,50.567 70.703,50.670 70.579 C 50.772 70.456,51.095 70.304,51.387 70.243 C 51.678 70.182,52.442 69.886,53.083 69.587 C 53.725 69.287,54.425 68.988,54.639 68.922 C 55.038 68.799,58.550 67.112,59.000 66.827 C 59.137 66.740,59.688 66.425,60.224 66.126 C 61.873 65.206,62.043 65.102,63.417 64.177 C 66.568 62.055,70.177 58.452,71.331 56.275 C 71.485 55.986,71.850 55.322,72.143 54.798 C 72.437 54.275,72.822 53.300,72.998 52.631 C 73.175 51.963,73.442 51.042,73.592 50.583 C 73.811 49.915,73.889 48.643,73.985 44.167 C 74.138 37.101,74.131 37.116,77.083 36.954 C 78.017 36.902,78.898 36.746,79.417 36.539 C 79.875 36.357,80.625 36.155,81.083 36.091 C 81.542 36.027,82.179 35.834,82.500 35.661 C 83.171 35.300,83.322 35.279,83.667 35.496 " stroke="none" fill="#c3cf06" fill-rule="evenodd"></path></g></svg>